<svg xmlns="http://www.w3.org/2000/svg" xml:space="preserve" width="2000" height="848" data-id="lg_G2LgTPo5w3HBTcsnDP" data-version="1" viewBox="0 0 2000 848"><g data-padding="20"><g transform="translate(10 11.794)scale(.97218)"><rect width="719" height="847.5" x="259.976" y="-398.6" fill="none" rx="0" ry="0" transform="translate(398.85 398.85)"/><path fill="#0080ff" d="m1002.226 661.5-97.5 81q-7.5 7.5-23.25 7.5h-116.25q-34.5 0-34.5-34.5v-486q0-18.75 10.5-27.75l96.75-81.75q8.25-6.75 24-6.75h116.25q34.5 0 34.5 34.5V303h13.5v-73.5q0-18.75 10.5-27.75l96.75-81.75q8.25-6.75 24-6.75h116.25q34.5 0 34.5 34.5v486q0 18.75-10.5 27.75l-97.5 81q-7.5 7.5-23.25 7.5h-116.25q-34.5 0-34.5-34.5v-159h-13.5v77.25q0 18.75-10.5 27.75m-140.25-.75h116.25q27 0 27-27v-166.5h125.25v166.5q0 27 27 27h116.25q27 0 27-27v-486q0-27-27-27h-116.25q-27 0-27 27V310.5h-125.25V147.75q0-27-27-27h-116.25q-27 0-27 27v486q0 27 27 27m349.5-472.5h7.5v405h-7.5V394.5h-288v198.75h-7.5v-405h7.5V387h288Z"/></g><path fill="transparent" stroke="transparent" d="M640.5 0h719v848h-719z"/></g></svg>