<svg xmlns="http://www.w3.org/2000/svg" xml:space="preserve" width="2000" height="1500" data-id="lg_iJfScal0k5T1SVGpaa" data-version="1" viewBox="0 0 2000 1500"><path fill="#77d4fc" stroke="transparent" d="M0 0h2000v1500H0z"/><g data-padding="20"><g transform="translate(-1209.821 -904.018)scale(2.15242)"><path fill="#0080ff" d="M1026.667 1020.637a71.4 71.4 0 0 1-62.412-36.036L756.27 624.342a71.4 71.4 0 0 1 0-72.055 71.4 71.4 0 0 1 62.395-36.036h415.985a71.4 71.4 0 0 1 62.412 36.036 71.4 71.4 0 0 1 0 72.055l-208.001 360.26-4.368-2.52 4.368 2.52a71.4 71.4 0 0 1-62.412 36.035ZM818.666 526.331c-22.411 0-42.47 11.592-53.676 30.996s-11.206 42.571 0 61.975l208 360.26c11.207 19.402 31.266 30.994 53.677 30.994s42.47-11.592 53.676-30.996l208-360.259a61.32 61.32 0 0 0 0-61.975 61.32 61.32 0 0 0-53.676-30.995Z"/><rect width="415.129" height="136.73" x="419.102" y="300.071" fill="none" rx="0" ry="0" transform="translate(399.56 256.07)"/><path fill="#0080ff" d="M848.197 662.506h-21.66v-85.79h21.66Zm52.51 0h-21.66v-85.79h21.66Zm-13.79-34.85h-48.04v-18.15h48.04Zm39.57 34.85h-22.14l33.28-85.79h20.93l32.91 85.79h-22.63l-24.8-72.11h7.86Zm45.38-15h-47.31v-17.18h47.31Zm101.64 15h-26.38l-32.43-44.77 31.1-41.02h26.38l-35.46 44.53v-7.62Zm-56.75 0h-21.66v-85.79h21.66Zm138.66 0h-26.38l-32.43-44.77 31.1-41.02h26.37l-35.45 44.53v-7.62Zm-56.75 0h-21.66v-85.79h21.66Z"/><path fill="#0080ff" d="M1174.787 662.506h-22.15l33.28-85.79h20.93l32.91 85.79h-22.62l-24.81-72.11h7.87Zm45.37-15h-47.31v-17.18h47.31Z"/><rect width="59.593" height="58.579" x="596.87" y="339.146" fill="none" rx="0" ry="0" transform="translate(399.76 584.32)"/><path fill="#0080ff" d="M1007.267 944.566h-4.29v-17.02h4.29Zm8.33 0h-9.21v-3.62h9.21Zm-.86-6.91h-8.35v-3.53h8.35Zm.72-6.48h-9.07v-3.63h9.07Zm7.89 13.65q-2.13 0-3.7-.64-1.58-.65-2.87-2.04l2.71-2.74q.89.94 1.9 1.43 1 .49 2.28.49 1.08 0 1.66-.37.59-.37.59-1.02 0-.6-.43-1-.43-.39-1.14-.69t-1.56-.58-1.7-.67q-.86-.4-1.56-.97-.71-.58-1.14-1.44-.44-.87-.44-2.14 0-1.63.78-2.78.78-1.16 2.18-1.78 1.39-.62 3.24-.62 1.84 0 3.4.62t2.57 1.73l-2.73 2.71q-.77-.77-1.56-1.15-.8-.39-1.73-.39-.89 0-1.39.32-.51.31-.51.88 0 .58.43.94.44.36 1.14.64.71.27 1.56.56.86.29 1.7.67.84.39 1.54.99.71.6 1.14 1.51.44.91.44 2.21 0 2.54-1.79 3.93t-5.01 1.39m17.4-.26h-4.29v-16.9h4.29Zm5.21-13.32h-14.71v-3.7h14.71Zm4.12 13.58q-1.06 0-1.73-.69-.67-.7-.67-1.73t.67-1.73q.67-.69 1.73-.69 1.03 0 1.7.69.67.7.67 1.73t-.67 1.73q-.67.69-1.7.69m-47.13 28.97-5.19-.1 6.68-6.79q.48-.53.79-.95t.44-.79.13-.78q0-.91-.58-1.44-.59-.53-1.55-.53-.91 0-1.66.52-.74.51-1.53 1.71l-2.81-2.49q1.03-1.68 2.64-2.56 1.61-.87 3.69-.87 1.85 0 3.2.67 1.34.67 2.07 1.91.73 1.23.73 2.91 0 1.01-.26 1.86t-.84 1.68-1.54 1.74Zm7.41 2.23h-12.6v-2.33l3.58-1.25h9.02Zm8.79.26q-2.14 0-3.82-1.11-1.68-1.12-2.65-3.11t-.97-4.58q0-2.57.96-4.55t2.63-3.1q1.66-1.11 3.78-1.11 2.16 0 3.84 1.11 1.68 1.12 2.64 3.1t.96 4.59q0 2.6-.96 4.58t-2.63 3.08-3.78 1.1m-.05-3.69q.98 0 1.68-.59t1.07-1.72q.37-1.12.37-2.78 0-1.63-.37-2.76t-1.07-1.72q-.7-.58-1.7-.58-.94 0-1.64.57-.69.58-1.06 1.71-.38 1.12-.38 2.76 0 1.65.38 2.79.37 1.14 1.06 1.73.7.59 1.66.59m13.79 1.2-5.19-.1 6.67-6.79q.48-.53.8-.95.31-.42.44-.79t.13-.78q0-.91-.59-1.44-.58-.53-1.54-.53-.92 0-1.66.52-.74.51-1.54 1.71l-2.8-2.49q1.03-1.68 2.64-2.56 1.6-.87 3.69-.87 1.85 0 3.19.67 1.35.67 2.08 1.91.73 1.23.73 2.91 0 1.01-.26 1.86-.27.85-.84 1.68-.58.83-1.54 1.74Zm7.41 2.23h-12.6v-2.33l3.58-1.25h9.02Zm5.58-5.83h-4.46l5.33-11.19h4.61Zm9.36 2.35h-13.82v-2.35l1.25-1.23h12.57Zm-1.63 3.48h-4.2v-10.25h4.2Z"/></g><path fill="transparent" stroke="transparent" stroke-width="2.232" d="M375 187.5h1250v1125H375z"/></g></svg>