<svg xmlns="http://www.w3.org/2000/svg" xml:space="preserve" width="2000" height="1500" data-id="lg_hVnU3Tww2sKBqujgwY" data-version="1" viewBox="0 0 2000 1500"><path fill="#0074d9" stroke="transparent" d="M0 0h2000v1500H0z"/><g data-padding="20"><g transform="translate(-271.404 -196.975)scale(1.24724)"><rect width="694" height="875.75" x="273.587" y="-77.407" fill="none" rx="0" ry="0" transform="translate(398.79 398.79)"/><path fill="#fff" d="m1002.767 1004.698-100.75 83.7q-7.75 7.75-24.03 7.75h-120.12q-35.65 0-35.65-35.65v-502.2q0-19.37 10.85-28.67l99.97-84.48q8.53-6.97 24.8-6.97h120.13q35.65 0 35.65 35.65v160.42h13.95v-75.95q0-19.37 10.84-28.67l99.98-84.48q8.53-6.97 24.8-6.97h120.13q35.65 0 35.65 35.65v502.2q0 19.37-10.86 28.67l-100.75 83.7q-7.75 7.75-24.02 7.75h-120.12q-35.65 0-35.65-35.65v-164.3h-13.95v79.83q0 19.37-10.85 28.67m-144.93-.77h120.13q27.9 0 27.9-27.9v-172.05h129.42v172.05q0 27.9 27.9 27.9h120.13q27.9 0 27.9-27.9v-502.2q0-27.9-27.9-27.9h-120.13q-27.9 0-27.9 27.9v168.17h-129.42v-168.17q0-27.9-27.9-27.9h-120.13q-27.9 0-27.9 27.9v502.2q0 27.9 27.9 27.9m361.15-488.25h7.75v418.5h-7.75v-205.38h-297.6v205.38h-7.75v-418.5h7.75v205.37h297.6Z"/></g><path fill="transparent" stroke="transparent" stroke-width="1.284" d="M554.366 187.5h891.268v1125H554.366z"/></g></svg>