<?xml version="1.0" encoding="UTF-8" standalone="no"?>
<!-- Created with Inkscape (http://www.inkscape.org/) -->

<svg
   version="1.1"
   id="svg1"
   width="357.20343"
   height="433.77432"
   viewBox="0 0 357.20343 433.77432"
   xmlns="http://www.w3.org/2000/svg"
   xmlns:svg="http://www.w3.org/2000/svg">
  <defs
     id="defs1" />
  <g
     id="g1"
     transform="translate(-71.101692,-37.026947)">
    <path
       style="fill:#000000"
       d="m 103.95944,469.56199 c -15.243357,-3.69365 -27.670587,-15.39411 -31.267877,-29.43926 -1.53057,-5.97592 -1.58987,-12.97223 -1.58987,-187.5634 V 71.203389 l 2.01747,-5.508475 c 4.64217,-12.67491 13.52363,-21.729714 25.94971,-26.456176 l 5.083667,-1.933655 158.8983,-0.225848 c 112.69812,-0.160183 159.54396,0.04127 161.1189,0.692871 1.22132,0.505297 2.6514,1.864279 3.17797,3.019962 0.70174,1.54015 0.95739,49.147374 0.95739,178.285302 v 176.18406 l -1.90678,2.20494 c -1.52215,1.76015 -3.1032,2.37334 -7.8378,3.03974 -7.4053,1.04232 -12.46006,3.45054 -17.20774,8.19823 -10.65324,10.65323 -10.97209,27.59071 -0.73276,38.92443 4.32367,4.78578 10.21302,7.70314 17.84072,8.83762 5.27583,0.78469 6.81353,1.36676 8.17155,3.0932 2.74001,3.48335 1.6301,8.50031 -2.27408,10.27917 -3.185,1.45118 -314.37706,1.18237 -320.39877,-0.27677 z m 285.3626,-12.89724 c 0,-0.30558 -0.89836,-1.73567 -1.99636,-3.17797 -10.28029,-13.50385 -10.68218,-33.92475 -0.95596,-48.5735 l 2.98255,-4.49205 -142.17614,0.22159 -142.17614,0.2216 -4.47826,2.35953 c -5.516087,2.90635 -10.469097,7.90087 -13.045707,13.15503 -2.85201,5.81577 -3.16778,15.85735 -0.70499,22.41895 3.3415,8.9027 12.07412,15.89432 21.932877,17.56016 4.72713,0.79875 280.61813,1.10024 280.61813,0.30666 z M 93.486123,391.156 c 1.69967,-0.86711 5.27163,-2.21069 7.937677,-2.98573 l 4.84738,-1.40917 V 219.35647 51.951849 l -2.33051,0.575595 c -3.66126,0.904268 -10.123637,5.394781 -13.012027,9.041677 -1.44965,1.830334 -3.35757,5.227602 -4.23982,7.549486 -1.55348,4.088431 -1.60408,9.329897 -1.60408,166.152263 v 161.93065 l 2.65553,-2.23448 c 1.46055,-1.22897 4.04618,-2.94394 5.74585,-3.81104 z M 414.53601,218.44916 414.32204,50.864405 H 267.28813 120.25423 l -0.21397,167.584755 -0.21396,167.58475 h 147.46183 147.46185 z"
       id="path1" />
  </g>
</svg>
